<?xml version="1.0" encoding="UTF-8" standalone="no"?>
<!DOCTYPE svg PUBLIC "-//W3C//DTD SVG 1.1//EN"
 "http://www.w3.org/Graphics/SVG/1.1/DTD/svg11.dtd">
<!-- Generated by graphviz version 13.1.2 (20250808.2320)
 -->
<!-- Title: dependency&#45;cruiser output Pages: 1 -->
<svg width="701pt" height="287pt"
 viewBox="0.00 0.00 701.00 287.00" xmlns="http://www.w3.org/2000/svg" xmlns:xlink="http://www.w3.org/1999/xlink">
<g id="graph0" class="graph" transform="scale(1 1) rotate(0) translate(4 282.5)">
<title>dependency&#45;cruiser output</title>
<g id="clust1" class="cluster">
<title>cluster_src</title>
<path fill="#ffffff" stroke="black" stroke-width="2" d="M20,-8C20,-8 673,-8 673,-8 679,-8 685,-14 685,-20 685,-20 685,-258.5 685,-258.5 685,-264.5 679,-270.5 673,-270.5 673,-270.5 20,-270.5 20,-270.5 14,-270.5 8,-264.5 8,-258.5 8,-258.5 8,-20 8,-20 8,-14 14,-8 20,-8"/>
<text xml:space="preserve" text-anchor="middle" x="346.5" y="-257.95" font-family="Arial" font-size="9.00">src</text>
</g>
<g id="clust2" class="cluster">
<title>cluster_src/lib</title>
<path fill="#ffffff" stroke="black" stroke-width="2" d="M28,-16C28,-16 665,-16 665,-16 671,-16 677,-22 677,-28 677,-28 677,-232 677,-232 677,-238 671,-244 665,-244 665,-244 28,-244 28,-244 22,-244 16,-238 16,-232 16,-232 16,-28 16,-28 16,-22 22,-16 28,-16"/>
<text xml:space="preserve" text-anchor="middle" x="346.5" y="-231.45" font-family="Arial" font-size="9.00">lib</text>
</g>
<g id="clust3" class="cluster">
<title>cluster_src/lib/builders</title>
<path fill="#ffffff" stroke="black" stroke-width="2" d="M236,-85C236,-85 429,-85 429,-85 435,-85 441,-91 441,-97 441,-97 441,-126 441,-126 441,-132 435,-138 429,-138 429,-138 236,-138 236,-138 230,-138 224,-132 224,-126 224,-126 224,-97 224,-97 224,-91 230,-85 236,-85"/>
<text xml:space="preserve" text-anchor="middle" x="332.5" y="-125.45" font-family="Arial" font-size="9.00">builders</text>
</g>
<g id="clust4" class="cluster">
<title>cluster_src/lib/factories</title>
<path fill="#ffffff" stroke="black" stroke-width="2" d="M461,-85C461,-85 637,-85 637,-85 643,-85 649,-91 649,-97 649,-97 649,-179 649,-179 649,-185 643,-191 637,-191 637,-191 461,-191 461,-191 455,-191 449,-185 449,-179 449,-179 449,-97 449,-97 449,-91 455,-85 461,-85"/>
<text xml:space="preserve" text-anchor="middle" x="549" y="-178.45" font-family="Arial" font-size="9.00">factories</text>
</g>
<g id="clust5" class="cluster">
<title>cluster_src/lib/patterns</title>
<path fill="#ffffff" stroke="black" stroke-width="2" d="M354,-24C354,-24 510,-24 510,-24 516,-24 522,-30 522,-36 522,-36 522,-65 522,-65 522,-71 516,-77 510,-77 510,-77 354,-77 354,-77 348,-77 342,-71 342,-65 342,-65 342,-36 342,-36 342,-30 348,-24 354,-24"/>
<text xml:space="preserve" text-anchor="middle" x="432" y="-64.45" font-family="Arial" font-size="9.00">patterns</text>
</g>
<g id="clust6" class="cluster">
<title>cluster_src/lib/strategies</title>
<path fill="#ffffff" stroke="black" stroke-width="2" d="M36,-85C36,-85 204,-85 204,-85 210,-85 216,-91 216,-97 216,-97 216,-126 216,-126 216,-132 210,-138 204,-138 204,-138 36,-138 36,-138 30,-138 24,-132 24,-126 24,-126 24,-97 24,-97 24,-91 30,-85 36,-85"/>
<text xml:space="preserve" text-anchor="middle" x="120" y="-125.45" font-family="Arial" font-size="9.00">strategies</text>
</g>
<!-- src/lib/SlideEngine.js -->
<g id="node1" class="node">
<title>src/lib/SlideEngine.js</title>
<g id="a_node1"><a xlink:href="src/lib/SlideEngine.js" xlink:title="SlideEngine.js">
<path fill="#ffccff" stroke="#cc00cc" d="M596.46,-217.5C596.46,-217.5 533.54,-217.5 533.54,-217.5 530.46,-217.5 527.38,-214.42 527.38,-211.33 527.38,-211.33 527.38,-205.17 527.38,-205.17 527.38,-202.08 530.46,-199 533.54,-199 533.54,-199 596.46,-199 596.46,-199 599.54,-199 602.62,-202.08 602.62,-205.17 602.62,-205.17 602.62,-211.33 602.62,-211.33 602.62,-214.42 599.54,-217.5 596.46,-217.5"/>
<text xml:space="preserve" text-anchor="start" x="535.38" y="-204.95" font-family="Arial" font-size="9.00" fill="#cc00cc">SlideEngine.js</text>
</a>
</g>
</g>
<!-- src/lib/factories/BuilderFactory.js -->
<g id="node2" class="node">
<title>src/lib/factories/BuilderFactory.js</title>
<g id="a_node2"><a xlink:href="src/lib/factories/BuilderFactory.js" xlink:title="BuilderFactory.js">
<path fill="#ffffcc" stroke="#cccc00" d="M634.58,-164.5C634.58,-164.5 563.42,-164.5 563.42,-164.5 560.33,-164.5 557.25,-161.42 557.25,-158.33 557.25,-158.33 557.25,-152.17 557.25,-152.17 557.25,-149.08 560.33,-146 563.42,-146 563.42,-146 634.58,-146 634.58,-146 637.67,-146 640.75,-149.08 640.75,-152.17 640.75,-152.17 640.75,-158.33 640.75,-158.33 640.75,-161.42 637.67,-164.5 634.58,-164.5"/>
<text xml:space="preserve" text-anchor="start" x="565.25" y="-151.95" font-family="Arial" font-size="9.00" fill="#cccc00">BuilderFactory.js</text>
</a>
</g>
</g>
<!-- src/lib/SlideEngine.js&#45;&gt;src/lib/factories/BuilderFactory.js -->
<g id="edge1" class="edge">
<title>src/lib/SlideEngine.js&#45;&gt;src/lib/factories/BuilderFactory.js</title>
<path fill="none" stroke="grey" stroke-width="2" d="M579.94,-198.53C579.94,-198.53 579.94,-173.94 579.94,-173.94"/>
<polygon fill="grey" stroke="grey" stroke-width="2" points="582.04,-173.94 579.94,-167.94 577.84,-173.94 582.04,-173.94"/>
</g>
<!-- src/lib/factories/StrategyFactory.js -->
<g id="node3" class="node">
<title>src/lib/factories/StrategyFactory.js</title>
<g id="a_node3"><a xlink:href="src/lib/factories/StrategyFactory.js" xlink:title="StrategyFactory.js">
<path fill="#ffffcc" stroke="#cccc00" d="M538.83,-164.5C538.83,-164.5 463.17,-164.5 463.17,-164.5 460.08,-164.5 457,-161.42 457,-158.33 457,-158.33 457,-152.17 457,-152.17 457,-149.08 460.08,-146 463.17,-146 463.17,-146 538.83,-146 538.83,-146 541.92,-146 545,-149.08 545,-152.17 545,-152.17 545,-158.33 545,-158.33 545,-161.42 541.92,-164.5 538.83,-164.5"/>
<text xml:space="preserve" text-anchor="start" x="465" y="-151.95" font-family="Arial" font-size="9.00" fill="#cccc00">StrategyFactory.js</text>
</a>
</g>
</g>
<!-- src/lib/SlideEngine.js&#45;&gt;src/lib/factories/StrategyFactory.js -->
<g id="edge2" class="edge">
<title>src/lib/SlideEngine.js&#45;&gt;src/lib/factories/StrategyFactory.js</title>
<path fill="none" stroke="grey" stroke-width="2" d="M536.19,-198.53C536.19,-198.53 536.19,-173.94 536.19,-173.94"/>
<polygon fill="grey" stroke="grey" stroke-width="2" points="538.29,-173.94 536.19,-167.94 534.09,-173.94 538.29,-173.94"/>
</g>
<!-- src/lib/factories/TenantRegistry.js -->
<g id="node4" class="node">
<title>src/lib/factories/TenantRegistry.js</title>
<g id="a_node4"><a xlink:href="src/lib/factories/TenantRegistry.js" xlink:title="TenantRegistry.js">
<path fill="#ffffcc" stroke="#cccc00" d="M634.71,-111.5C634.71,-111.5 561.29,-111.5 561.29,-111.5 558.21,-111.5 555.12,-108.42 555.12,-105.33 555.12,-105.33 555.12,-99.17 555.12,-99.17 555.12,-96.08 558.21,-93 561.29,-93 561.29,-93 634.71,-93 634.71,-93 637.79,-93 640.88,-96.08 640.88,-99.17 640.88,-99.17 640.88,-105.33 640.88,-105.33 640.88,-108.42 637.79,-111.5 634.71,-111.5"/>
<text xml:space="preserve" text-anchor="start" x="563.12" y="-98.95" font-family="Arial" font-size="9.00" fill="#cccc00">TenantRegistry.js</text>
</a>
</g>
</g>
<!-- src/lib/SlideEngine.js&#45;&gt;src/lib/factories/TenantRegistry.js -->
<g id="edge3" class="edge">
<title>src/lib/SlideEngine.js&#45;&gt;src/lib/factories/TenantRegistry.js</title>
<path fill="none" stroke="grey" stroke-width="2" d="M550.06,-198.82C550.06,-172.82 550.06,-102 550.06,-102 550.06,-102 550.54,-102 550.54,-102"/>
<polygon fill="grey" stroke="grey" stroke-width="2" points="545.81,-104.1 551.81,-102 545.81,-99.9 545.81,-104.1"/>
</g>
<!-- src/lib/patterns/SlideDirector.js -->
<g id="node5" class="node">
<title>src/lib/patterns/SlideDirector.js</title>
<g id="a_node5"><a xlink:href="src/lib/patterns/SlideDirector.js" xlink:title="SlideDirector.js">
<path fill="#ffcccc" stroke="#cc0000" d="M507.58,-50.5C507.58,-50.5 442.42,-50.5 442.42,-50.5 439.33,-50.5 436.25,-47.42 436.25,-44.33 436.25,-44.33 436.25,-38.17 436.25,-38.17 436.25,-35.08 439.33,-32 442.42,-32 442.42,-32 507.58,-32 507.58,-32 510.67,-32 513.75,-35.08 513.75,-38.17 513.75,-38.17 513.75,-44.33 513.75,-44.33 513.75,-47.42 510.67,-50.5 507.58,-50.5"/>
<text xml:space="preserve" text-anchor="start" x="444.25" y="-37.95" font-family="Arial" font-size="9.00" fill="#cc0000">SlideDirector.js</text>
</a>
</g>
</g>
<!-- src/lib/SlideEngine.js&#45;&gt;src/lib/patterns/SlideDirector.js -->
<g id="edge4" class="edge">
<title>src/lib/SlideEngine.js&#45;&gt;src/lib/patterns/SlideDirector.js</title>
<path fill="none" stroke="grey" stroke-width="2" d="M547.53,-198.78C547.53,-163.4 547.53,-41 547.53,-41 547.53,-41 523.26,-41 523.26,-41"/>
<polygon fill="grey" stroke="grey" stroke-width="2" points="523.26,-38.9 517.26,-41 523.26,-43.1 523.26,-38.9"/>
</g>
<!-- src/lib/factories/BuilderFactory.js&#45;&gt;src/lib/factories/TenantRegistry.js -->
<g id="edge9" class="edge">
<title>src/lib/factories/BuilderFactory.js&#45;&gt;src/lib/factories/TenantRegistry.js</title>
<path fill="none" stroke="grey" stroke-width="2" d="M612.92,-145.53C612.92,-145.53 612.92,-120.94 612.92,-120.94"/>
<polygon fill="grey" stroke="grey" stroke-width="2" points="615.02,-120.94 612.92,-114.94 610.82,-120.94 615.02,-120.94"/>
</g>
<!-- src/lib/builders/ChartSlideBuilder.js -->
<g id="node6" class="node">
<title>src/lib/builders/ChartSlideBuilder.js</title>
<g id="a_node6"><a xlink:href="src/lib/builders/ChartSlideBuilder.js" xlink:title="ChartSlideBuilder.js">
<path fill="#ccffcc" stroke="#00cc00" d="M323.33,-111.5C323.33,-111.5 238.67,-111.5 238.67,-111.5 235.58,-111.5 232.5,-108.42 232.5,-105.33 232.5,-105.33 232.5,-99.17 232.5,-99.17 232.5,-96.08 235.58,-93 238.67,-93 238.67,-93 323.33,-93 323.33,-93 326.42,-93 329.5,-96.08 329.5,-99.17 329.5,-99.17 329.5,-105.33 329.5,-105.33 329.5,-108.42 326.42,-111.5 323.33,-111.5"/>
<text xml:space="preserve" text-anchor="start" x="240.5" y="-98.95" font-family="Arial" font-size="9.00" fill="#00cc00">ChartSlideBuilder.js</text>
</a>
</g>
</g>
<!-- src/lib/factories/BuilderFactory.js&#45;&gt;src/lib/builders/ChartSlideBuilder.js -->
<g id="edge7" class="edge">
<title>src/lib/factories/BuilderFactory.js&#45;&gt;src/lib/builders/ChartSlideBuilder.js</title>
<path fill="none" stroke="grey" stroke-width="2" d="M585.08,-145.77C585.08,-138.25 585.08,-129 585.08,-129 585.08,-129 281,-129 281,-129 281,-129 281,-120.93 281,-120.93"/>
<polygon fill="grey" stroke="grey" stroke-width="2" points="283.1,-120.93 281,-114.93 278.9,-120.93 283.1,-120.93"/>
</g>
<!-- src/lib/builders/TextSlideBuilder.js -->
<g id="node8" class="node">
<title>src/lib/builders/TextSlideBuilder.js</title>
<g id="a_node8"><a xlink:href="src/lib/builders/TextSlideBuilder.js" xlink:title="TextSlideBuilder.js">
<path fill="#ccffcc" stroke="#00cc00" d="M426.33,-111.5C426.33,-111.5 347.67,-111.5 347.67,-111.5 344.58,-111.5 341.5,-108.42 341.5,-105.33 341.5,-105.33 341.5,-99.17 341.5,-99.17 341.5,-96.08 344.58,-93 347.67,-93 347.67,-93 426.33,-93 426.33,-93 429.42,-93 432.5,-96.08 432.5,-99.17 432.5,-99.17 432.5,-105.33 432.5,-105.33 432.5,-108.42 429.42,-111.5 426.33,-111.5"/>
<text xml:space="preserve" text-anchor="start" x="349.5" y="-98.95" font-family="Arial" font-size="9.00" fill="#00cc00">TextSlideBuilder.js</text>
</a>
</g>
</g>
<!-- src/lib/factories/BuilderFactory.js&#45;&gt;src/lib/builders/TextSlideBuilder.js -->
<g id="edge8" class="edge">
<title>src/lib/factories/BuilderFactory.js&#45;&gt;src/lib/builders/TextSlideBuilder.js</title>
<path fill="none" stroke="grey" stroke-width="2" d="M556.88,-155C554.23,-155 552.59,-155 552.59,-155 552.59,-155 552.59,-107 552.59,-107 552.59,-107 441.71,-107 441.71,-107"/>
<polygon fill="grey" stroke="grey" stroke-width="2" points="441.71,-104.9 435.71,-107 441.71,-109.1 441.71,-104.9"/>
</g>
<!-- src/lib/factories/StrategyFactory.js&#45;&gt;src/lib/factories/TenantRegistry.js -->
<g id="edge12" class="edge">
<title>src/lib/factories/StrategyFactory.js&#45;&gt;src/lib/factories/TenantRegistry.js</title>
<path fill="none" stroke="grey" stroke-width="2" d="M529.38,-145.54C529.38,-129.2 529.38,-98 529.38,-98 529.38,-98 545.9,-98 545.9,-98"/>
<polygon fill="grey" stroke="grey" stroke-width="2" points="545.9,-100.1 551.9,-98 545.9,-95.9 545.9,-100.1"/>
</g>
<!-- src/lib/strategies/LayoutStrategy.js -->
<g id="node9" class="node">
<title>src/lib/strategies/LayoutStrategy.js</title>
<g id="a_node9"><a xlink:href="src/lib/strategies/LayoutStrategy.js" xlink:title="LayoutStrategy.js">
<path fill="#ccccff" stroke="#0000cc" d="M111.71,-111.5C111.71,-111.5 38.29,-111.5 38.29,-111.5 35.21,-111.5 32.12,-108.42 32.12,-105.33 32.12,-105.33 32.12,-99.17 32.12,-99.17 32.12,-96.08 35.21,-93 38.29,-93 38.29,-93 111.71,-93 111.71,-93 114.79,-93 117.88,-96.08 117.88,-99.17 117.88,-99.17 117.88,-105.33 117.88,-105.33 117.88,-108.42 114.79,-111.5 111.71,-111.5"/>
<text xml:space="preserve" text-anchor="start" x="40.12" y="-98.95" font-family="Arial" font-size="9.00" fill="#0000cc">LayoutStrategy.js</text>
</a>
</g>
</g>
<!-- src/lib/factories/StrategyFactory.js&#45;&gt;src/lib/strategies/LayoutStrategy.js -->
<g id="edge10" class="edge">
<title>src/lib/factories/StrategyFactory.js&#45;&gt;src/lib/strategies/LayoutStrategy.js</title>
<path fill="none" stroke="grey" stroke-width="2" d="M456.62,-158C347.51,-158 75,-158 75,-158 75,-158 75,-120.99 75,-120.99"/>
<polygon fill="grey" stroke="grey" stroke-width="2" points="77.1,-120.99 75,-114.99 72.9,-120.99 77.1,-120.99"/>
</g>
<!-- src/lib/strategies/StyleStrategy.js -->
<g id="node10" class="node">
<title>src/lib/strategies/StyleStrategy.js</title>
<g id="a_node10"><a xlink:href="src/lib/strategies/StyleStrategy.js" xlink:title="StyleStrategy.js">
<path fill="#ccccff" stroke="#0000cc" d="M201.96,-111.5C201.96,-111.5 136.04,-111.5 136.04,-111.5 132.96,-111.5 129.88,-108.42 129.88,-105.33 129.88,-105.33 129.88,-99.17 129.88,-99.17 129.88,-96.08 132.96,-93 136.04,-93 136.04,-93 201.96,-93 201.96,-93 205.04,-93 208.12,-96.08 208.12,-99.17 208.12,-99.17 208.12,-105.33 208.12,-105.33 208.12,-108.42 205.04,-111.5 201.96,-111.5"/>
<text xml:space="preserve" text-anchor="start" x="137.88" y="-98.95" font-family="Arial" font-size="9.00" fill="#0000cc">StyleStrategy.js</text>
</a>
</g>
</g>
<!-- src/lib/factories/StrategyFactory.js&#45;&gt;src/lib/strategies/StyleStrategy.js -->
<g id="edge11" class="edge">
<title>src/lib/factories/StrategyFactory.js&#45;&gt;src/lib/strategies/StyleStrategy.js</title>
<path fill="none" stroke="grey" stroke-width="2" d="M456.57,-152C366.1,-152 169,-152 169,-152 169,-152 169,-120.87 169,-120.87"/>
<polygon fill="grey" stroke="grey" stroke-width="2" points="171.1,-120.87 169,-114.87 166.9,-120.87 171.1,-120.87"/>
</g>
<!-- src/lib/patterns/SlideBuilder.js -->
<g id="node7" class="node">
<title>src/lib/patterns/SlideBuilder.js</title>
<g id="a_node7"><a xlink:href="src/lib/patterns/SlideBuilder.js" xlink:title="SlideBuilder.js">
<path fill="#ffcccc" stroke="#cc0000" d="M418.08,-50.5C418.08,-50.5 355.92,-50.5 355.92,-50.5 352.83,-50.5 349.75,-47.42 349.75,-44.33 349.75,-44.33 349.75,-38.17 349.75,-38.17 349.75,-35.08 352.83,-32 355.92,-32 355.92,-32 418.08,-32 418.08,-32 421.17,-32 424.25,-35.08 424.25,-38.17 424.25,-38.17 424.25,-44.33 424.25,-44.33 424.25,-47.42 421.17,-50.5 418.08,-50.5"/>
<text xml:space="preserve" text-anchor="start" x="357.75" y="-37.95" font-family="Arial" font-size="9.00" fill="#cc0000">SlideBuilder.js</text>
</a>
</g>
</g>
<!-- src/lib/builders/ChartSlideBuilder.js&#45;&gt;src/lib/patterns/SlideBuilder.js -->
<g id="edge5" class="edge">
<title>src/lib/builders/ChartSlideBuilder.js&#45;&gt;src/lib/patterns/SlideBuilder.js</title>
<path fill="none" stroke="grey" stroke-width="2" d="M281,-92.68C281,-75.45 281,-41 281,-41 281,-41 340.3,-41 340.3,-41"/>
<polygon fill="grey" stroke="grey" stroke-width="2" points="340.3,-43.1 346.3,-41 340.3,-38.9 340.3,-43.1"/>
</g>
<!-- src/lib/builders/TextSlideBuilder.js&#45;&gt;src/lib/patterns/SlideBuilder.js -->
<g id="edge6" class="edge">
<title>src/lib/builders/TextSlideBuilder.js&#45;&gt;src/lib/patterns/SlideBuilder.js</title>
<path fill="none" stroke="grey" stroke-width="2" d="M387,-92.72C387,-92.72 387,-59.94 387,-59.94"/>
<polygon fill="grey" stroke="grey" stroke-width="2" points="389.1,-59.94 387,-53.94 384.9,-59.94 389.1,-59.94"/>
</g>
<!-- src/lib/index.js -->
<g id="node11" class="node">
<title>src/lib/index.js</title>
<g id="a_node11"><a xlink:href="src/lib/index.js" xlink:title="index.js">
<path fill="#ccffcc" stroke="blue" d="M662.83,-217.5C662.83,-217.5 621.17,-217.5 621.17,-217.5 618.08,-217.5 615,-214.42 615,-211.33 615,-211.33 615,-205.17 615,-205.17 615,-202.08 618.08,-199 621.17,-199 621.17,-199 662.83,-199 662.83,-199 665.92,-199 669,-202.08 669,-205.17 669,-205.17 669,-211.33 669,-211.33 669,-214.42 665.92,-217.5 662.83,-217.5"/>
<text xml:space="preserve" text-anchor="start" x="626.25" y="-204.95" font-family="Arial" font-size="9.00" fill="blue">index.js</text>
</a>
</g>
</g>
</g>
</svg>
